<?xml version="1.0" standalone="no"?>
<!DOCTYPE svg PUBLIC "-//W3C//DTD SVG 20010904//EN"
 "http://www.w3.org/TR/2001/REC-SVG-20010904/DTD/svg10.dtd">
<svg version="1.0" xmlns="http://www.w3.org/2000/svg"
 width="200.000000pt" height="200.000000pt" viewBox="0 0 200.000000 200.000000"
 preserveAspectRatio="xMidYMid meet">
<metadata>
Created by potrace 1.14, written by Peter Selinger 2001-2017
</metadata>
<g transform="translate(0.000000,200.000000) scale(0.100000,-0.100000)"
fill="#000000" stroke="none">
<path d="M1169 1836 c-2 -2 -35 -7 -74 -10 -164 -16 -254 -68 -337 -193 -68
-103 -127 -135 -272 -148 -77 -7 -153 -40 -192 -83 -51 -56 -68 -102 -69 -182
0 -103 11 -184 33 -234 l19 -42 -29 -34 c-93 -110 -180 -274 -202 -382 -21
-102 -24 -130 -21 -182 6 -105 62 -143 173 -116 31 7 110 14 174 14 115 1 118
2 145 29 31 30 29 8 23 322 -3 146 18 244 54 246 25 1 75 6 134 13 43 5 44 4
38 -19 -4 -14 -9 -45 -13 -70 -4 -34 -16 -56 -50 -92 -49 -54 -61 -84 -44
-119 13 -29 60 -33 86 -8 18 19 17 19 34 -22 13 -32 47 -69 89 -95 21 -13 24
-22 26 -109 2 -52 7 -103 11 -113 18 -44 101 -55 137 -19 23 23 26 37 27 124
l1 66 70 0 c78 0 74 6 70 -86 -3 -84 38 -135 101 -126 20 3 43 16 56 32 20 24
23 38 23 120 0 109 -3 105 125 116 123 9 202 24 296 56 149 50 218 104 176
138 -15 13 -18 13 -144 12 -88 0 -177 23 -248 63 -31 17 -41 29 -43 52 -4 48
-24 106 -55 159 l-28 48 22 16 c69 48 134 144 147 217 11 62 2 214 -20 325
-20 104 -90 203 -183 262 -35 22 -53 29 -115 45 -22 6 -147 13 -151 9z"/>
<path d="M24 966 c-25 -21 -27 -27 -18 -56 16 -56 89 -57 130 -2 19 24 17 39
-6 62 -27 27 -73 25 -106 -4z"/>
<path d="M626 368 c-26 -36 -20 -76 15 -109 33 -31 66 -32 102 -1 20 17 22 69
4 93 -33 42 -97 51 -121 17z"/>
</g>
</svg>
